<svg xmlns="http://www.w3.org/2000/svg" viewBox="0 0 693.51 238.92">
    <defs>
        <style>
            .cls-1 {
                fill: #a1c8ffff;
            }
        </style>
    </defs>
  <path class = "cls-1" d="M623.79,36.77c-14.41,5.91-32.02,8.28-45.96,14.79-12.14,6.07-8.65,20.76-7.98,31.8.63,10.71,1.08,21.63,2.18,32.34.64,6.45,2.05,12.8,2.53,19.26.05,9.83.31,19.37,2.3,28.98,1.06,8.38-.54,17.15-.47,25.59-.45,8.73,1.75,21.43-6.41,26.99-6.47,3.47-14.06-5.82-19.16-10.46-4.76-5.55-2.07-13.8-1.92-20.49,1.07-25.9-2.31-52.92-8.62-78.19-3.01-10.9.66-27.59-5.36-36.65-4.11-3.83-14-2.41-19.92-4.96-4.3-.58-13.64-9.69-15.59-2.69-3.25,29.46-7.92,63.87-6.93,92.62.37,5.03,1.75,9.62,2.54,14.66,1.41,6.3.5,13.9,3.83,19.65,3.02,4.69,9.86,2.55,14.15,5.6,8.87,8.14,1.12,23.91-7.73,29.19-9.73,6.24-27.85-4.81-31.39-14.34-3.05-9.59-6.62-19.17-8.05-29.21-.97-3.98.31-11.37-3.19-13.84-3.59.76-4.99,7.41-6.75,12.06-2.6,8.47-5.95,15.76-11.15,23.13-4.53,6.6-10.53,15.96-19.07,16.27-9.88-.65-21.38-7.75-24.72-17.71-8.33-31.29-4.59-66.93-5.49-100.37-1.2-9.22,4.58-26.64-8.57-28.43-4.8-.26-10.89,1.79-13.85,5.14-3.62,3.85-3.89,10.61-4.25,16.38-.64,10.9-1.32,21.58-2.23,32.37-2.28,20.96-3.06,97.04-30.99,97.47-7.61-.11-15.69-2.72-21.43-7.58-5.78-6.89-12.35-14.07-15.52-22.56-9.1-35.02-4.59-71.33,1.68-106.32,1.64-9.75,5.69-18.96,13.51-25.2,6.01-5.61,12.74-12.43,21.25-14.19,10.3-2.4,21.36.96,31.75-1.79,15.57-4.38,31.48-10.04,47.86-5.83,12.67,2.6,15.63,14.56,14.46,25.77-1.09,12.37-2.29,24.43-2.72,36.79-1.09,17.08-1.6,34.18-.98,51.26.06,10.94-1.02,24.12,7.34,5.34,5.87-12.49,8.26-26.83,13.94-39.62,5.85-11.59,11.1-23.47,13.41-36.35,2.01-9.4,4-18.83,5.51-28.27.76-13.01,8.06-28.73,23.5-25.43,11.67,2.58,10.04,17.8,16.58,14.3,14-6.91,19.06-6.6,30.24-19.2,10.23-10.22,22.38-2.33,34.11-.97,14.27.54,27.54-6.94,41.09-10.4,10.66-2.87,22.66-4.38,33.72-7.05,11.16-2.35,22.44-6.37,33.9-6.44,13.05-.69,21.44,19.22,7.75,24.91-7.34,3.2-15.71,2.5-23.51,3.67-13.1,1.93-26.5,4.55-39.02,8.12l-.18.06ZM337.06,92.69c-5.84-3.87-7.31,13.59-8.42,17.09-4.85,22.35-6.3,43.92-3.27,67.08.41,2.35,1.08,6.4,2.9,7.21,8.99,1.54,16.09-87.15,8.87-91.31l-.08-.07Z"/>
  <path class = "cls-1" d="M235.87,15.15c5.66,6.28,7.69,13.69,7.59,22.03.39,9.53-2.07,18.55-4.15,27.5-.87,5.01-2.89,10.67-1.51,15.67.81,2.45,3.1,4.03,6.53,5.38,9.49,3.91,19.8,5.17,27.03,12.56,5.56,5.6,12.7,11.23,15.97,18.67,7.24,19.29,2.4,41.05-5.66,59.37-10.68,23.69-35.89,53.11-61.11,61.17-24.48,6.45-39.33-9.58-46.18-31.71-1.15-3.65-1.66-7.54-3.31-11-1.83-4.18-5.36-7.09-7.15-11.39-1.82-4.66-1.3-10.35-1.03-15.56,1.25-10.95-1.98-21.88-2.7-32.74-1.67-27.61,5.28-56.95-.19-84.13-2.02-9.02-4.51-21.7,5.63-26.34,4.4-2.48,10.19-3.72,14.68-5.97,4.56-2.12,7.96-5.86,12.18-8.48,6.3-3.41,13.76-5.83,20.93-5.82,8.43.62,17.14,3.89,22.35,10.67l.11.14ZM208.84,43.12c-2.52-.62-5.74,5.21-7.04,7.17-3.48,5.35-4.78,10.45-6.01,17.55-.69,4.3-1.75,9.11-1.41,13.32,1.65,8.57,9.45-3.49,10.9-6.52,2.98-4.77,3.68-11.03,4-17.22.2-3.57.76-7.78.61-11.17-.12-1.67-.47-2.74-1-3.1l-.06-.04ZM250.04,115.04c-3.31-2.29-7.8-3.67-11.93-4.88-5.84-1.66-11.88-3.1-17.58-.64-5.45,2.23-11.77,6.88-16.96,11.11-3.69,3-6.46,6.76-7.26,11.47-1.43,11.66-.54,23.61-.71,35.31.43,5.99,2.5,10.98,2.32,16.88-.2,2.96-.88,5.96-1.82,8.79-1.45,4.55-3.99,8.42-3.47,12.54.42,3.67,3.64,7.32,7.29,9.26,6.43,3.54,14.29,1.04,20.45-2.04,13.4-6.87,21.16-20.14,30.13-31.52,4.26-5.13,6.03-11.73,7.79-18.12,1.82-6.16,3.08-12.09,3.44-18.29.32-5.12,1.3-10.37-.45-15.33-2.14-5.49-6.34-10.84-11.1-14.44l-.15-.1Z"/>
  <path class = "cls-1" d="M80.23,11.09c9.98,5.92,11.29,18.58,13.13,29.01,1.22,7.55.71,15.17,2.96,22.49,2.1,6.9,5.84,13.53,7.4,20.55,1.7,6.92.54,14.16,1.75,21.32,1.34,7.3,4.15,14.26,4.8,21.71.6,18.94,20.51,75.86.88,85.42-4.34,2.48-11.57,2.46-14.1-2.12-1.54-2.52-1.61-6.07-1.55-9.07.14-4.27.47-8.43.13-12.94-.33-6.34-2.23-12.79-1.97-19.1.36-6.44.28-13.82-1.32-20.37-1.48-5.88-3.92-11.5-5.55-17.26-4.55-15.57-11.9-22.02-26.25-11-17.91,13.86-15.93,44.57-23.49,65.05-3.24,9.16-6.51,21.65-18.87,19.74-7.04-.95-18.52-2.83-18.18-11.75.14-3.43,1.45-6.91,2.46-10.21,1.72-5.24,2.96-10.38,4.4-15.62,2.05-7.15,4.11-14.23,5.53-21.55,1.6-6.52.44-12.56-3.46-18.03-2.24-3.33-3.51-7.64-1.04-11.08,4.03-5.74,11.34-9.39,14.45-15.76,3.5-6.42,3.06-13.97,4.47-20.98,1.58-8.46,4.16-17.3,5.75-25.51,1.27-6.36,1.84-12.58,2.52-19.13.99-8.98,1.4-18.46,10.38-23.05,6.11-3.52,13.17-3.33,20.07-3.41,4.97-.07,10.12-.11,14.51,2.54l.16.1ZM68.52,78.01c-.67-.58-1.74-.53-2.49-.07-1.01.55-1.29,1.89-1.45,3.61-.31,1.61-.45,6.3,2.19,4.72,1.55-1.3,1.75-3.88,2.14-5.76.19-1.1.19-1.93-.3-2.41l-.1-.09Z"/>
</svg>