<svg  xmlns="http://www.w3.org/2000/svg" viewBox="0 0 1078.58 239.29">
  <defs>
    <style>
      .cls-1 {
        fill: #a1c8ffff;
      }
    </style>
  </defs>
  <path class="cls-1" d="M122.71,60.36c1.91,1.13,39.51.35,44.33.22,2.86-.08,5.74-.97,8.95-1.1s6.27,1.29,8.74.9c1.01-.16,10.51-5.45,11.73-6.36,4.16-3.12,8.57-12.16,13.07-15.88,11.25-9.31,37.25-10.02,48.91-1.09,7.86,6.02,5.61,10.82,18.36,9.41,18.31-2.02,36.49-6.29,55.05-6.93,16.51-.57,34.84.26,52.91,1.09,13.49.61,29.65-3.56,39.91,7.04,2.68,2.77,4.67,8.81,8.06,10.92s11.32,1.81,13.98,5.01c1.6,1.93.93,5.36,1.74,7.29.62,1.48,2.56,1.38,2.82,2.36,1.86,7.12-1.36,18.16-1.94,24.86-1.49,17.22-2.06,34.67-3.33,51.82-1.01,13.57-.9,37.16-6.8,48.69-.2.39-5.58,6.12-5.97,6.3-6.63,3.1-13.56-6.41-14.72-12.22-7.01-35.07-2.62-71.29-5.22-106.68-.5-6.84-.81-9.56-1.96-16.02-.44-2.48.47-5.36-.24-7.76-1.9-6.44-17.51-2.91-22.3-2.7-11.43.5-22.67-.3-33.47,4.5l-.87,1.13c-.95,12.98-1.27,25.85-1.16,38.88.12,13.75.35,28.07.6,41.92.36,19.85,5.55,41.7,3.47,60.97-.99,9.18-10.59,19.87-20.76,15.7-.53-.22-8.69-6.16-9.27-6.71-2.29-2.12-10.13-16.22-10.74-19.24-.8-3.96.31-8.29-.79-12.29,5.33-4.16,5.75,3.24,10.04,2.07.43-.12,1.55-3.86,1.54-4.46-.01-.68-1.71-.61-2.02-1.27-4.37-9.51-1.76-22.86-2.97-32.8-2.12-17.35-.12-33.26-2.16-50.79-.77-6.66-2.27-22.31-8.52-25.48-3.14-1.6-6.09-.39-9.57.15-7.84,1.23-15.51,5.28-21.47,6.5-2.53.52-12.84.32-14.09,1.4-.08,3.17-2.71,4.22-3.95,6.54-1.03,1.92-1.1,4.53-2.37,6.63-3.05,5.06-8.59,4.86-10.4,13.57-1.54,7.44,2.91,8.07,5.82,13.32,8.91,16,15.45,37.24,20.18,54.71,2.35,8.68,2.53,31.77-.5,40.16-.39,1.07-1.98,1.25-2.82,2.38-1.58,2.13-4.14,7.07-7.64,7.06-.47,0-8.12-3.87-8.48-4.19-1.18-1.03-1.28-2.56-2.04-3.75-.42-.66-1.79-.65-1.95-1.42-1.37-6.54.04-16.35-1.23-22.57-.57-2.78-3.65-6.68-4.48-9.51-5.98-20.42-8.86-34.43-22.32-51.86-2.41-3.12-.37-5.63-7.7-7.07-9.49-1.87-6.17,14.55-6.62,20.1s-1.79,11.28-2.05,17.16c-.43,9.81,3.66,32.14-5.41,38.33-1.9,1.29-9.48,5.16-11.53,5.09-6.56-.23-20.52-11.61-21.5-18.53-3.81-26.99,4.08-56.7,2.9-83.82-.15-3.53-.77-12.42-1.65-15.33-.69-2.3-2.35-4.66-4.86-5.13-3.84-.72-23.92-.65-27.9.02-2.01.34-10.42,4.7-10.62,6.41-1.76,15.16,4.32,39,6.06,54.99.58,5.37-.67,11.63.07,16.91.51,3.63,2.9,7.42,3.01,12.04.21,9.06-.59,27.05-2.36,35.68-1.39,6.73-8.24,25.32-13.76,29.2-4.13,2.91-17.12,4.1-19.65-1.18-3.42-7.14,2.37-10.79,4.93-16.54,5.7-12.83,5.42-24.31,4.84-38.2-.63-15.31-3.59-31.8-7.73-46.22-3.01-10.45-1.67-25.08-3.35-35.61-2.58-16.18-24.9-7.67-26.56,5.1-3.29,25.31-11.7,51.45-15.43,77.69-.34,2.38-1.73,9.67-2.36,11.63-2.67,8.38-14.98,10.92-22.5,8.39-3.41-1.15-11.35-9.12-11.99-13-2.05-12.44,4.33-45.82,8.2-58.64,1.04-3.43,4.35-5.88,2.59-10.6-3.32-1.28-22.64-3.34-23.71-4.32-.34-.32.07-1.99-.4-2.48-1.94-2.01-5.56-3.47-6.48-7.08-2.65-10.39.88-11.19,6.61-16.88,1.02-1.01,1.61-3.57,2.4-4.09,4.5-2.91,19.65-5.98,25.87-8.6,1.9-.8,7.34-3.26,8.27-4.71,2.57-3.97,2.8-17.67,4-22.97,1.95-8.64,2.53-12.3,3.79-21.18.75-5.29,5.14-16.55,9.49-19.75.77-.57,16.64-6.51,17.98-6.73,16.03-2.64,31.66.37,35.78,17.7,1.46,6.13,4.97,40.26,7.62,41.83ZM230.44,67.53c-2.74-2.63-11.38,7.79-11.66,11.61-.14,1.88,1.12,4.27.68,6.38,9.57.64,11.18-10.71,10.98-17.99Z"/>
  <path class="cls-1" d="M551.8,35.91c3.93,3.47,7.43,14.28,12.9,14.61,2.52.15,7.12-2.19,10.22-2.68,13.14-2.08,25.11-3.19,37.45-7.51,2.82-.99,8.98-5.44,10.37-5.57s4.99,2.07,7.82,2.26c10.77.71,22.62-3.2,33-4.45,14.63-1.77,44.55-.88,58.73,2.19.64.14,8.84,5.44,9.44,6.04,1.17,1.15,2.57,4.99,1.79,6.71-3.72,8.26-16.13,4.1-22.86,4.4-4.76.21-9.8,3.01-12.39,3.55-14.88,3.14-32.13,5.08-46.47,10.31-1.54.56-3.31,2.5-4.79,3.46l-7.98,44.72c-2.52,30.51,5.07,62.79.95,92.87-1.27,9.28-6.32,15.27-15.92,16.05-4.78-3.01-12.85-10.22-13.92-16.01-1.18-6.35.89-13.86,1-19.9.58-33.41-3.74-64.73-3.08-97.99.08-4.16,2.35-7.76.29-12.2-1.67-3.62-3.62-1.2-6.7-1.2-6.98.01-16.48.75-23.05-.02-4.76-.55-9.98-3.59-15.74-2.04-1.28.34-6.09,10.63-10.2,10.65l-9.52-6.12-13.46-17.5c-4.63,7.33-8.1,8.87-4.97,17.95,5.72,16.57,29.08,32.62,37.31,50.6s2.85,33.64-5.49,50.21c-2.02,4.02-11.54,20.93-14.44,22.53-7.55,4.17-17.74,8.87-26.36,9.6-10.13.86-10.67-1.23-18.18-4.88-9.14-4.45-11.61-3.91-15.82-14.15-4.96-12.05-7.87-27.01-2.38-39.32,3.36-7.53,13.66-19.25,22.38-11.64,7.51,6.56.45,13.06-1.25,19.78-2.2,8.69-1.53,28.85,11.46,24.43,10.28-3.5,13.97-19.02,16.75-28.2.78-2.57,2.97-4.67,3.43-7.55,1.4-8.72-2.69-20.83-8.49-27.39-6.41-7.25-15.19-16.19-20.85-25.07-13.65-21.41-11.84-40.93,6.39-58.42,4.49-4.31,8.14-7.01,14.49-7.49,5.7-.43,18.67.27,23.96,2.09,1.53.53,2.98,1.21,4.2,2.29Z"/>
  <path class="cls-1" d="M1047.06,83.8c-23.59,31.84-36.34,73.55-47.03,112.21-1.71,6.6-3.31,13.26-4.98,19.86-.84,3.26-1.83,6.78-3.66,9.46-5.38,7.85-19.7,8.8-26.69,2.6-7.61-6.42-9.47-16.76-12.63-25.72-3.06-8.5-7.24-16.68-10.48-25.13-8.49-21.56-9.85-45.29-15.28-67.63-1.73-8.67-7.9-20.75-.62-28.1,5.63-4.7,14.37-4.63,20.91-1.96,14.17,6.1,13.66,23.36,15.32,36.64,1.21,12.68,3.3,24.73,5.72,37.24.9,5.22,3.92,13.79,8.95,5.55,1.15-1.82,2.07-3.96,2.94-5.97,2.95-7.06,7.05-13.61,10.5-20.7,3.44-7.98,8.73-15.16,13.07-22.41,1.72-2.93,2.9-6.16,4.51-9.5,2.03-3.74,4.24-7.78,6.37-11.06,3.16-4.34,5.21-9.32,8.08-13.84,1.9-3.04,4-5.7,6.45-8.45,4.26-4.37,7.84-9.92,11.52-14.88,6.21-8.23,20.93-13.47,30.63-9.27,4.55,1.76,8.84,7.07,7.73,11.61-.6,2.7-2.77,4.63-5.04,6.33-3.24,2.37-6.86,4.36-10.1,6.76-5.98,4.3-11.58,10.62-16.08,16.22l-.12.15Z"/>
  <path class="cls-1" d="M878.67,59.79c.18.08.05,1.69.76,1.76s1.88-.98,3.44-.59c5.33,1.31,15.41,13.36,17.72,18.31,5.07,10.85,7.85,28,1.07,38.57-4.07,6.35-13.68,9.72-19.26,3.6-6.98-8.46-8.07-19.64-11.03-29.94l-2.88-.85c-4.18,4.1-7.71,9.04-11.07,13.92-15.01,21.81-23.02,51.33-16.3,78.12,1.49,5.92,10.93,23.2,15.79,26.12.94.57,2.82,1.12,3.89,1.15.76.02,10.25-8.26,11.47-9.61.97-1.08,1.23-2.86,2.12-3.87,6.49-7.31,11.55-15.56,21.73-17.92,6.52,4.35,4.92,12.22,3.21,18.89-3.26,12.75-9.98,26.25-19.99,34.96-10.87,9.46-29.77,5.44-40.41-2.59-2.85-2.15-15.27-16.03-16.9-19.07s-1.94-6.82-3.35-9.68-1.24-1.25-2.87-6.04c-10.17-29.86-4.18-58.38,6.3-87.78,3.6-10.11,21.31-39.54,30.47-44.46,7.02-3.77,15.26-2.46,22.71-2.2,1.19.04,2.82-1.03,3.36-.78Z"/>
</svg>