<svg xmlns="http://www.w3.org/2000/svg" viewBox="0 0 1021.72 265.93">
  <defs>
    <style>
      .cls-1 {
        fill: #a1c8ffff;
      }
    </style>
  </defs>
  <path class="cls-1" d="M832.6,112.35c1.77-2.38,7.93-6.22,10.63-8.85s6.18-6.71,9.71-9.52c8.71-6.92,18.98-13.6,29.99-15.68,7.15-1.35,19.19-3.05,16.97,7.96-1.81,9.02-6.9,7.82-12.41,11.1-4.45,2.65-19.83,18.02-23.85,22.59-5.37,6.1-17.66,20.65-15.76,28.75,2.31,9.84,14.75,30.09,20.44,39.52,4.76,7.88,12.59,16.97,16.8,24.38,5.07,8.93,1.1,18.18-7.93,21.81-6.92,2.78-13.83,2.83-19.56-2.52-2.95-2.76-10.04-13.84-13.04-17.93-5.71-7.77-9.34-15.69-14.99-22.97-.94-1.21-5.1-7.02-6.4-6.08-2.91,11.95-6.6,23.37-8.88,35.58-.5,2.66.06,5.43-.56,8.44-2.09,10.13-20.2,21.36-29.07,14.96-1.69-1.22-7.21-10.13-9.45-8.03-1.31,11.67-6.26,23.95-20.28,20.96-.56-.12-8.23-7.16-8.51-7.66-2.86-5.04-3.13-16.44-5.96-23.01-4.77-11.07-23.62-41.8-32.68-49.25-1.07-.88-16.12-8.85-17.07-8.99-9.31-1.32-7.87,13.37-7.41,19.48.58,7.74,2.07,12.24.98,20.98-.71,5.71-.87,10.1-5.35,14.14s-14.52,5.8-19.93,2.41c-1.04-.65-1.44-2.61-2.63-3.59-5.96-4.95-9.58-6.9-9.87-15.93-.26-8.11,1.73-18.78,1.85-26.95.34-22.79-1.61-47.33,2.19-69.74.68-4.04,3.55-16.63,5.03-19.95,1.92-4.31,7.02-4.93,11.24-4.83,1.83.05,8.27.72,9.79,1.09.8.2.64,1.86,1.34,2.01,4.71.97,13.73-8.23,18.43-10.42,10.86-5.07,29.83-5.23,41.11-1.35,1.35.46,5.62,4.02,6.74,5.25,8.22,9.07,10.06,20.86,7.69,32.64-3.66,18.21-13.02,21.77-22.13,35.84-3.37,5.21.44,7.83,3.93,11.96,11.72,13.89,19.96,21.2,28.2,38.74,2.62,5.58,5.5,17.32,8.39,21.58.88,1.3,2.25,1.67,3.39,2.6l6.4-32.54c-1.14-27.94,3.08-57.05,1.12-84.88-.61-8.61-4.59-18.69-4.97-27.09-.19-4.13,3.54-9.81,7.01-11.75,9.47-5.29,30.48,6.19,32.83,16.95-.45,9.93-1.64,19.99-.99,29.96.13,2.05,1.16,11.34,2.53,11.42l11.53-5.51c.9-2.87,1.5-5.55,3.38-8.08ZM715.06,104.24l-2.29-.96c-2.38,2.93-7.06,3.38-9.5,5.44-3.67,3.1-12.97,17.84-10.49,22.33.13.24,4.77,1.88,5.04,1.88,1.81,0,11.87-10.29,13.45-12.49,3.65-5.06,6.68-9.85,3.79-16.21Z"/>
  <path class="cls-1" d="M306.67,101.98c-3.7,12.36-3.52,25.63-3.05,38.52.92,25.21,2.29,51.05,3.96,75.97.66,9.82,3.51,34.7-1.47,42.33-1.62,2.49-6.24,6.2-9.17,6.81-9.7,2.02-10.16-5.71-17.95-9.06-.74-1.3-1.79-2.98-2.07-4.42-2.73-14.08-1.11-26.06-2.25-39.72-.43-5.11-2.52-10.78-2.96-16.02-2-23.87-.08-49.27-2.03-72.9-.39-4.79-1.43-10.88-4.69-14.51-2.86-.8-24.62,2.52-26.34,4.43-2.61,2.9-3.19,13.56-4.73,18.25-3.11,9.45-8.48,14.3-13,21.97-8.32,14.12-.55,21.71,3.12,34.49,3.69,12.87,6.19,26.69,9.17,39.79.48,2.1,2.12,3.66,2.46,5.53.77,4.18-.56,12.42-2.91,16-1.53,2.34-11.64,8.85-14.46,8.45-2.08-.3-9.45-8.9-10.96-11.11-9.82-14.36-11.68-36.14-17.52-52.42-.84-2.35-8.57-19.89-9.56-20.42-1.57-.84-2.17,1.9-2.23,2.74-1.1,16.3-3.45,38.25-6.39,54.56-.51,2.82-.82,6.19-2.39,8.6s-10.05,8.67-12.96,8.66c-.82,0-14.7-4.32-15.76-4.86-4.9-2.45-7.8-8.94-7.79-14.27,0-3.28.77-10.38,1.2-13.85,4.29-34.55,5.08-70.82-.06-105.09-.8-5.35-1.76-14.14-.28-19.14,1.85-6.22,5.48-9.71,11.73-10.25,11.82-1.03,13.95,1.98,23.19,3.74,8.71,1.66,10.29-2.43,17.01-4.5,2.93-.9,14.96-3.27,17.73-3.25,12.26.1,15.18,8.7,30.71,3.73,37.44-11.97,80.76-9.12,120.1-8.77,7.38.07,14.63.66,22,.04,18.72,9.92-14.74,18.81-22.83,22.09-14.9,6.05-22.64,4.72-37.99,6.96-3.1.45-5.47,2.89-8.58.9Z"/>
  <path class="cls-1" d="M522.87,136.57c-.68,1.23-1.25,2.21-1.59,3.53-3.43,14.67-5.21,49.77-9.95,68.66-3.46,13.22-.75,29.05-6.23,41.37-2.58,6.25-9.35,8.92-15.63,10.03-5.49,1.04-10.74-.42-15.27-3.53-17.92-13.34-15.58-41.02-24.93-59.52-3.29-6.79-5.62-1.43-6.88,2.97-2.42,8.31-5.68,16.81-7.37,24.83-3.07,13.41-2.95,35.21-20.12,38.12-17.8,1.01-26.24-6.68-28.29-24.24-2.99-30.26-2.25-62.09-3.85-92.51-.29-5.52-.83-10.55-1.94-15.99-1.12-7.24-5.42-21.47-1.86-27.6,2.25-3.38,7.34-5.52,11.74-6.48,4.12-.77,8.26-.07,12.38.73,4.65.98,10.68,2.53,12.85,6.31,5.81,11.16,3.06,24.34,2.63,36.73,0,1.5-1.52,10.2.81,9.62,2.62-2,3.63-7.58,4.9-10.79,4.63-16.6,11.08-26.12,29.71-27.06,7.25-.41,13.06,4.94,15.68,11.28,4.89,10.78,6.35,27.94,8.5,39.88.74,3.59,2.25,14.62,6.05,6.65,3.53-6.3,5.46-12.85,7.73-19.9,1.03-2.96,2.23-5.91,3.11-8.91,1.2-3.85,1.28-7.81,2.01-11.67.81-4.38,2.5-8.29,4.29-12.5,1.92-4.44,4.03-8.95,6.25-13.23,2.31-4.35,4.22-7.74,8.31-10.25,4.24-2.49,10.12-3.91,14.78-2.2,4.46,1.61,5.08,8.33,4.34,12.98-1,7.1-4.04,12.06-6.63,18.09-1.93,4.57-3.05,10.45-5.49,14.5l-.06.11Z"/>
  <path class="cls-1" d="M92.68.26c6.93,1.22,4.73,5.07,6.61,7.88,3.61,5.39,3.8,14.22,4.29,20.69,1.74,23.12,2.38,47.81,12.03,68.89,1.71,3.74-.95,26.69-.81,33.78.56,28.48,3.81,57.41,2.1,85.9-.22,3.7-3.63,17.37-5.16,20.63-2.07,4.4-17.02,9.63-22.37,8.91l-1.31-.29c-1.83-5.38-7.14-3.85-8.7-9.77-2.62-9.94,1.12-7.95,4.96-13.07,3.64-4.85,4.92-20.25,4.58-26.46-.2-3.76-1.76-7.36-2.01-10.97-1.2-16.92.43-36.41-2.27-52.68-1.05-6.32-3.17-9-10.27-8.86-6.83.14-14.91,6.68-19.25,11.8.7,11.1-7.6,22.63-9.14,32.82-2.2,14.51-3.85,32.38-5.12,46.77s-15.24,25.2-29.46,18.68c-2.27-1.04-2.83-2.45-4.5-3.53-1.14-.74-2.96-.03-4.02-1.17-3.11-3.32-3.21-13.05-2.45-17.41,1.84-10.62,7.45-23.91,9.31-34.65.73-4.2,3.26-9.19,3.68-13.4.99-10.09,4.03-14.27,1.12-25.9-.99-3.97-3.24-3.47-4.35-5.64-3.02-5.93-5.28-17.57-.05-19.12s13.13-10.45,16.39-21.07c.75-15.41,5.96-31.57,7.32-46.62.55-6.13-1.11-15.74,1.02-20.96,2.57-6.29,17.23-4.57,21.04-8.94s4.07-9.29,10.25-11.73S85.74-.96,92.68.26ZM73.87,76.01c-2.31-.47-1.6.27-2.24,1.28-3.18,4.99-2.53,11.14-3.75,16.7,3.24-.32,6.11,2.13,7.71-1.54,3.14-7.22-1.18-9.81-1.71-16.45Z"/>
  <path class="cls-1" d="M974.42,116.59c-3.92-2.98-8.1-7.2-9.13-12.33-.7-3.51,1.49-12.45-3.56-11.12-4.12,1.09-16.07,22.98-15.65,27.23.65,6.57,6.25,10.23,12.49,10.66,3.4.24,6.67-1.49,9.97-1.52,11.69-.12,27.16-.59,36.91,6.53,1.58,1.15,1.27,2.97,1.89,3.58,8.6,8.31,10.41,8.74,12.59,21.88,4.98,30.03.18,59.45-23.85,79.89-14.69,12.5-29.57,14.92-48.56,13.49-15.26-1.14-20.21-5.53-29.91-16.05-1.34-1.45-3.42-2.12-4.54-3.45-9.37-11.18-1.23-31.16,6.71-41.22,3.98-5.04,11.36-8.09,17.82-7.3,4.82.59,15.52,10.56,16.39,15.6.46,2.7,1.36,17.54.85,19.72-.56,2.37-3.35,3.83-2.78,6.69,10.49,1.13,18.71-5.92,24.95-13.5,5.36-6.52,8.06-12.54,8.91-21.06,1.06-10.65-2.16-19.99-4-30.26-1.27-1.08-28.52.49-33.4-.08-1.45-.17-12.6-2.94-13.15-3.34-.51-.36-7.25-7.95-8.3-9.18-2.45-2.9-3.23-6.49-7.33-8.73-2.3-5.52-2.7-26.25-.41-31.99,1.01-2.53,2.8-3.74,3.51-5.48,4.63-11.28,8.25-23.51,18.72-31.23,13.67-10.09,34.91-11.67,49.15-2.19,7.44,4.95,13.49,25.14,13.32,33.7-.16,7.63-12.3,19.1-20.04,16.98-1.7-.47-7.89-4.61-9.6-5.9Z"/>
  <path class="cls-1" d="M597.17,100.26c9.42-1.03,18.22-2.12,24.2,6.22,8.7,12.13,6.31,61.71,5,77.92-.6,7.36-1.4,17.94-3.05,24.92-1.08,4.58-8.92,25.22-11.27,28.69-6.3,9.31-22.68,16.44-33.58,12.28-24.42-9.33-28.39-41.04-27.07-63.93.89-15.44,1.94-31.37,3.05-46.9.87-12.19,2.4-17.28,13.27-23.69,2.09-1.23,4.81-1.29,7.21-2.78,9.76-6.04,7.49-11.12,22.24-12.73ZM596.28,148.06l-3.86-.11c-.59.58-.98,12.36-1.4,14.31-.93,4.33-3.71,8.93-4.36,13.42-1.16,7.96.3,17.11-.26,25.21l2.25-1.24c.9-7.45,5.43-15.29,6.48-22.49.49-3.37-.09-6.55.28-9.71.75-6.49,2.86-12.56.87-19.38Z"/>
</svg>