<?xml version="1.0" encoding="UTF-8"?>
<svg id="Layer_1" xmlns="http://www.w3.org/2000/svg" version="1.1" viewBox="0 0 28.35 28.35">
  <!-- Generator: Adobe Illustrator 29.8.1, SVG Export Plug-In . SVG Version: 2.1.1 Build 2)  -->
<path id="br-o" d="M24.86,12.55c0,1.63-.1,2.36,0,3.52.2,2.52,1.4,3.09-.05,5.57-.44.76-1.04,1.54-1.32,1.97-.49.75-1.99,2.13-3.56,2.14-.97,0-3.57-2.06-5.35-2.27-1.45-.17-2.22.28-5.28.28" style="fill: none; stroke: #000; stroke-miterlimit: 10;"/>
<path id="br-i" d="M9.35,20.24c3.01,0,2.79-.08,3.52-.13,1.23-.08,4.83-.51,5.85-.92s2.35-1.71,2.62-2.73c.2-.46.51-1.71.51-3.91" style="fill: none; stroke: #000; stroke-miterlimit: 10;"/>
</svg>