<svg xmlns="http://www.w3.org/2000/svg" viewBox="0 0 848.44 210.73">
    <defs>
        <style>
        .cls-1 {
            fill: #a1c8ffff;
        }
        </style>
    </defs>
    <path class = "cls-1" d="M369.4,9.6c5.05,6.29-3.2,22.47,10.6,21.38,14.24-.47,27.84-6.53,41.14-11.26,21.98-7.01,54.98-14.89,72.46-3.05,5.11,3.36,6.79,9.94.88,12.88-9.47,4.07-21.55,1.08-33.34,6.27-16.39,6.24-14.3,21.4-15.23,35.68-5.99,43.31-11.46,88.51-9.87,132.09-3.3,12.78-15.15,1.99-23.11,5.81-9.6,5.52-9.46-7.5-8.57-13.67,5.12-36.81,7.27-75.12,9.2-112.26.29-10.04,6.19-32.15-10.8-28.89-6.49.78-12.69,3.27-19.23,3.78-5.49.65-12.68-1.21-17.49.92-3.35,1.51-4.62,5.24-5.37,8.93-2.88,10.23-1.78,20.23-1.66,30.77-2.67,20.67-3.23,41.53-2.01,62.37-.22,6.93,2.96,14.85-1.26,20.91-7.13,7.91-20.41,10.1-29.7,5.06-7.35-6.15-5.54-18.11-8.09-26.76-1.16-5.2-4.16-9.67-5.94-14.63-1.77-4.89-2.31-10.75-4.99-15.56-6.61-11.67-18.45-19.69-25.09-31.37-3.46-6.3-7.49-12.18-12.27-17.55-3.09-3.71-10.61-19.52-15.05-9.36-.24,21.72-2.21,43.74-3.86,65.43-1.45,13.31,2.5,28.53-1.6,41.21-6.22,9.64-23.37,8.35-31.59,2.53-3.27-12.58-1.05-46.38-2.28-61.76-.27-5.44.48-10.39.95-15.99.05-5.3,2.64-31.03-2.05-32.65-4.62.47-6.72,6.15-7.97,10.26-1.77,11.63-6.64,22.07-9.37,33.36-2.94,15.96-7.8,31.48-11.86,47.23-1.74,7.02-2.92,13.17-5.8,20.05-5.71,16.9-10.75,15.74-26.84,17.93-7.69,1.03-16.61-2.63-18.66-10.61-5.4-21.35-4.07-44.52-3.11-66.47.29-8.46,2.22-17.11.54-25.54-1.34-6.34-7.55-10.16-9.49-16.64-2.34-7.02,3.88-14.22,7.8-19.77,6.6-9.6,16.66-13.15,27.09-17.42,10.22-4.57,19.08-10.1,30.12-9.3,7.26,0,13.37,5.71,20.51,5.45,6.8-.78,12.38-6.14,18.36-9.21,11.63-5.45,25.51-9.97,37.85-5.89,21.82,8.68,32.17,46.01,47.97,63.85,4.64,4.63,8.66,16.92,15.87,17.03,7.32-5.94,6.11-16.76,7.12-25.68.77-6.26,2.68-12.25,3.24-18.52.71-6.93,1.16-16.34,3.32-22.52,2.28-6.66,5.16-12.82,8.53-19.06,2.16-3.69,3.78-7.77,7.43-9.78,3.81-1.6,9.18-2.36,12.49-.07l.09.08ZM174.27,94.14c-1.1-1.42-3.42-1.01-4.77.03-6.22,4.32-6.75,20.62-7.13,30.51-.13,1.53-.53,12.16,1.96,9.39.75-1.02,1.51-4.16,2.43-5.99,1.33-2.9,3.71-3.55,4.76-7.03.81-2.78,1.23-5.85,1.58-8.75.42-3.83.16-7.5.94-10.91.36-2.3,1.51-5.02.31-7.15l-.07-.09Z"/>
    <path class = "cls-1" d="M834.4.66c4.65.93,10.24,2.31,12.67,6.84,2.39,4.64,1.67,11.24-2.26,14.63-9.48,6.34-22.23,1.51-32.5,5.51-3.49,1.09-6.85,2.6-10.4,3.49-4.92,1.27-9.74,1.06-14.69,1.73-9.99,1.51-22.72.55-27.23,11.22-12.29,23.96,10.17,134.29-13.94,135.87-3.79.24-7.65-.66-11.65-.97-4.21-.25-8.89-2.05-8.75-6.99.39-9.06,1.61-17.91,1.78-27.36.93-25.16-.44-52.38-3.92-77.07-.49-3.33-1.26-7.05-3.97-9.3-4.08-3.42-11.08-3.03-14.65,1.06-2.68,2.93-4.63,6.83-8.28,8.72-5.34,2.82-12.78,4.08-18.06,1.89-5.08-2.09-7.12-7.56-10.33-11.62-3.93-5.38-9.62-2.48-13.13,1.62-20.21,19.69-38.81,84.74-11.32,105.18,8.38,3.37,14.2-8.27,20.17-12.4,4.4-3.04,11.44-7.93,16.77-5.48,10.44,10.77-6.53,36.21-18.3,40.71-5.37,2.53-11.62,2.43-17.44,1.93-7.15-.55-14.69-.96-20.69-5.08-9.71-6.95-16.97-18.79-21.87-29.02-2.14-5.5-1.75-11.12-1.95-17.44.44-22.25,4.89-45.16,14.63-62.38,2.3-4.53,3.66-9.53,6.16-13.85,1.94-2.91,5.06-4.89,7.21-7.65,2.75-3.3,4.7-7.34,7.54-10.49,2.27-2.58,5.12-4.48,7.72-6.69,5.64-4.83,9.44-11.74,16.85-13.86,8.53-2.72,18.96-.73,26.94,3.65,3.31,1.82,6.51,5.02,10.54,4.68,30.57-14.15,63.46-20.01,96.99-24.71,6.79-1.05,13.58-3.07,20.03-5.07,6.02-1.94,13.12-2.49,19.11-1.29l.18.03Z"/>
    <path class = "cls-1" d="M578.52,93.29c5.42,28.28,30.89,129.52-7.61,115.61-3.72-.73-10.47.36-12.29-2.61-1.47-2.77-.39-6.64.03-9.72,1.62-10.19,2.63-23.88,1.6-34.71-.59-6.05-3.5-10.24-3.85-16.08-.37-5.25.32-13.67-.45-19.99-.59-6.25-2.53-11.34-4.09-16.36-2.7-9.61-7.18-14.47-17.07-8.96-8.02,4.43-13.37,12.13-14.6,21.02-2.74,14.83.14,35.22-8.7,47.98-3.98,5.22-9.91,5.52-16.84,5.76-2.7.05-5.66-.1-8.2-.83-5.77-1.28-6.58-7.26-5.7-12.49.8-5.12,1.89-10.26,2.55-15.42,3.62-26.17,8-52.26,14.44-77.8,2.36-8.66,2.34-17.68,3.99-26.66,1.52-8.71,8-11.79,15.4-14.84,6.96-2.84,12.86-7.87,20.11-9.83,36.37-7.46,36.27,52.94,41.26,75.81l.03.14ZM539.03,61.5c-.49-.44-1.23-.17-2.02.57-2.07,2.04-3.64,6.11-2.46,8.99.81.93,2.49-.11,3.73-1.28,1.83-1.79,2.22-5.86.84-8.2l-.09-.08Z"/>
    <path class = "cls-1" d="M92.74,18.78c2.96,6.04-2.86,10.9-9.15,12.38-5.26,1.36-10.9-.11-15.35-.56-8.62-1.52-13.4,5.57-16.77,12.68-2.16,4.35-3.97,8.93-5.83,13.42-2.82,6.74-6.03,12.35-8.28,18.68-3.19,8.41-4.07,17.54-6.11,26.27-4.09,17.75-11.33,38.62-2.38,55.97,7.68,14.03,27.17,18.61,40.3,9.48,13.12-8.58,22.51-23.1,33.73-33.78,5.26-5.25,17.42-12.2,19.23-3.5,1.22,8.92-5.83,16.92-10.03,24.25-4.46,6.91-8.45,14.37-14.27,20.3-7.74,7.39-16.29,14.79-26.18,18.77-21.87,7.37-54.64,2.55-68.06-17.84-5.49-9.94-3.48-22.49-1.75-33.33,1.63-9.8,2.26-20.53,3.91-30,1.07-6.06,2.96-11.79,4.24-17.86.93-4.06,1.76-8.33,2.92-12.26,2.22-7.2,4.97-14.07,7.79-20.86,3.55-8.36,7.55-16.32,11.31-24.64,2.84-6.77,5.31-14.72,9.31-20.68,11.17-17.35,41.71-14.63,51.36,2.96l.06.14Z"/>
</svg>