<svg xmlns="http://www.w3.org/2000/svg" viewBox="0 0 865.54 226.21">
  <defs>
    <style>
      .cls-1 {
        fill: #a1c8ffff;
      }
    </style>
  </defs>
  <path class="cls-1" d="M45.07,55.7c1.41,1.05,13.11-4.82,15.54-4.93,6.77-.31,18.32,6.2,21.61,12.22,4.67,8.55,4.39,22.09,10.77,29.68.07-3.7,3.86-2.48,6.13-4.39,1.54-1.29,1.45-3.45,2.22-4.27,12.7-13.5,29.73-29.33,46.91-36.32.57-.23.58-1.78,1.4-1.97,12.72-2.84,22.77,4.5,26.76,15.99,4.26,12.25,2.15,25.6,2.48,38.48.27,10.51,1.92,21.25,1.03,31.92-.41,4.88-2.82,10.79-2.78,15.99.04,4.71,2.47,10.6,2.58,14.99.15,5.73-2.42,13.95-2.78,19.99-.59,9.68,2.44,31.56-4.46,38.5-1.23,1.23-4.94,2.73-6.72,3.27-12.17,3.66-18.59.06-19.78-12.82-2.09-22.65-1.24-45.19-1.98-67.96-.46-14.3-1.85-28.6-4.23-42.72-.97-2.79-5.7-1.91-7.51-.41l-20.82,30.62c-6.88,13.83-8.7,26.67-10.45,41.5-.6,5.08-2.39,15.63-6.48,18.5-5.43,3.81-19.66,7.3-25.39,3.41-.62-.42-8.62-7.53-8.96-8.03-5.9-8.59-1.52-16.95-1.08-25.81.48-9.65.39-21.14-1.51-30.54l-4.01-11.95c-1,.75-1.76,1.57-2.25,2.75-2.44,5.82-5.22,18.4-6.13,24.84-2.37,16.81-2.41,34.42-4.64,51.31-5.69,8.49-16.88,16.32-27.38,10.43-.65-.36-10.64-9.3-11.1-9.88-2.23-2.83-2.12-7.59-2.01-11.06.4-12.23,2.61-24.72,3.08-36.88,1.13-29.37-3.27-63.77-.03-91.95.71-6.2,2.62-16.6,9.25-18.72,3.29-1.05,13.44-1.9,17.08-1.65,9.91.69,12.91,9.57,15.64,17.87Z"/>
  <path class="cls-1" d="M806.88,4.23c16.25,11.08,15.27,17.38,18.69,34.75,2.63,13.35,5.22,17.94,2.31,32.76-.65,3.31-2.41,9.7-6.56,8.95l1.01,2.98-3.99.99c1.26.02,2.56.21,3.7.8,10.05,5.26,25.7,16.38,32.73,25.22,1.59,2,8.66,20.61,9.29,23.68,3.87,18.72.25,47.25-11.75,62.7-13.21,17.02-53.07,18.5-71.65,11.16-.67-.27-8.98-9.99-9.48-10.95-7.17-13.74-4.2-29.71,2.31-43.06,2.26-4.63,4.06-7.25,9.09-8.9,10.59-3.47,26.64-4.97,29.54,9.01,1.47,7.08-6.19,26.25-4.58,29.03.16.28,4.37,4.16,5.2,3.22,7.77-1.34,16.73-17.26,17.62-24.46,1.66-13.41-4.89-37.5-18.49-43.51-14.35-6.33-32.07-6.19-47.5-11.44-37.52-12.77-24.17-63.38-6.97-87.93C766.67,6,780.39-.47,796.58.03c5.48.17,6.43,1.56,10.31,4.2ZM793.36,79.67c-7.93-9.46-3.5-22.8-5.44-34.01-.96-5.52-2.62-9.92-6.74-3.64-11.18,17.05-13.5,36.7,12.18,37.65Z"/>
  <path class="cls-1" d="M462.99,140.31c.14.31,1.84.89,2.76,2.7,5.74,11.36,9.7,39.47,7.95,52.1-.66,4.77-12.15,18.97-17.52,18.99-2.91,0-7.38-5.19-8.88-7.66-3.04-4.99-9.08-24.48-10.39-30.57-.49-2.27.24-4.9-.27-6.73-2.85-10.25-9.38-22.27-17.42-29.3-1.2,1.32-5.63,2.4-6.24,3.03-2.52,2.59-2.66,23.73-2.18,28.14s4.88,14.93,4.81,18.08c-.1,4.6-4.31,8.1-6.32,11.54-.91,1.56-.67,4-1.47,5.28-.75,1.2-2.58.95-3.34,1.65-7.98,7.23-13.91,8.76-23.21,1.98-11.14-8.13-7.77-12.17-8.52-24.44-2-32.6,1.98-62.94-4.22-95.69-1.97-10.41-10.43-17.03-.74-28.18,10.4-11.98,23.29-4.55,34-7.96,2.41-.77,6.81-5.68,9.61-7.37,7.89-4.75,23.41-13.5,32.03-14.93,9.88-1.64,23.48,3.2,28.42,12.07,7.75,13.95,3.45,32.16-3.78,45.52-6.08,11.24-16.05,15.09-12.94,30.14.76,3.66,6.14,17.64,7.88,21.61ZM418.71,95.66c8.97-2.02,13.77-10.03,12.97-18.98-7.98,2.97-13.67,9.97-12.97,18.98Z"/>
  <path class="cls-1" d="M325.47,206.25c-2.67,3.16-10.54,7.51-14.79,6.76-1.21-.22-8.82-5-9.8-6.01-2.89-3-2.2-7.94-9.01-3.88-1.79,1.07-2.09,3.34-3.51,4.48-1.49,1.2-13.41,7.63-15.11,7.86-10.65,1.47-17.97-3.47-24.41-11.37-4.46-5.47-14.91-32.58-16.72-40.23-4.75-20.03-1.82-42.27-4.29-62.65-1.03-8.52-6.19-24.81-3.19-32.26.74-1.83,10.49-9.99,12.27-10.71,2.2-.88,19.88-1.03,22.23-.33.55.16,8.31,7.05,8.66,7.58,8.18,12.41-2,25.95-2.05,38.67-.03,8.93,3.53,19.98,2.6,29.37l1.98,3.09c1.1-4.23,1.75-8.79,2.98-13,4.11-14.07,8.75-27.9,12.99-41.95,1.24-4.1,1.67-11.43,3.46-14.53.35-.61,9.05-9.95,9.65-10.33,3.46-2.25,16.75-4.06,20.67-2.9,1.4.42,5.58,5,6.53,6.46,8.63,13.24,1.98,36.74,1.18,51.79-1.12,21.17-2.11,45.86-1.05,66.97.42,8.31,5.2,19.47-1.28,27.12Z"/>
  <path class="cls-1" d="M584.21,47.05c10.43,9.11,7.39,18.33,10.6,29.86s18.44,3.71,24.42,11.04c7.1,8.72-7.71,13.1-11.66,16.24-7.18,5.69-6.33,15.29-4.39,23.3,2.51,10.37,6.1,22.97,7.25,33.72.52,4.91.91,22.48-.14,26.63-2.6,10.27-24.36,21.02-31.2,11.71-.72-.98-4.5-9.35-4.6-10.46-.45-4.89,3.04-7.25,3.18-12,.11-3.83-2.44-23.08-3.79-26.25-.48-1.12-1.84-.99-2.47-2.59-2.24-5.74-.43-13.26-5.39-17.67l-10.99,4c-9.28,13.17-4.18,30.24-5.46,45.5-.73,8.7-2.66,13.14-10.04,17.94-9.24,6.01-18.42,3.95-26.88-2.23-7.07-21.97-.15-45.26,1-67.61.74-14.32.49-31.62,0-46.04-.14-4.03-2.04-9.23-2.07-13-.09-9.25,6.1-18.69,15.78-20.17,6.84-1.05,17.95,1.54,23.47.49,2.05-.39,4.03-2.04,6.51-2.48,5.53-.99,15.68-3.34,20.76-3.15,1.64.06,4.82,2.1,6.1,3.22Z"/>
  <path class="cls-1" d="M675.48,149.61c1.52-1.24,3.95.21,4.77-.18.24-.12.31-1.46.93-1.79,17.07-9.07,34.01-13.44,51.75-19.98,7.32-2.7,23.6-13.85,30.5-5.3,9.24,11.47-8.49,16.4-14.97,20.82-2.06,1.41-4.44,3.74-6.62,5.38-14.95,11.28-35.59,22.98-52.01,33.85-10.12,6.7-22.45,17.21-35.43,14.54-6.91-1.42-14.28-10.05-17.85-15.93v-60.93c-1.57-18.86-1.57-37.93-3.06-56.89-.68-8.57-5.54-21.69,1.32-29.18,1.26-1.38,13.56-6.64,15.56-6.79s11.79,2.31,13.61,3.49c.75.49,8.55,6.63,8.94,7.05,5.73,6.17,3.12,16.4-1.15,22.56,3.91,29.5,2.96,59.55,3.71,89.29Z"/>
</svg>